HIERARCHY
ROOT Hips
{
  OFFSET 0.0 0.0 0.0
  CHANNELS 6 Xposition Yposition Zposition Zrotation Xrotation Yrotation
  JOINT LeftHipJoint
  {
    OFFSET 0.1 0.0 0.0
    CHANNELS 3 Zrotation Xrotation Yrotation
    JOINT LeftUpLeg
    {
      OFFSET 117.05941048100834 0.0 0.0
      CHANNELS 3 Zrotation Xrotation Yrotation
      JOINT LeftLeg
      {
        OFFSET 0.0 0.0 -421.52566652508733
        CHANNELS 3 Zrotation Xrotation Yrotation
        JOINT LeftFoot
        {
          OFFSET 0.0 0.0 -423.82983868275653
          CHANNELS 3 Zrotation Xrotation Yrotation
          End Site
          {
            OFFSET 0.0 -0.1 0.0
          }
        }
      }
    }
  }
  JOINT LowerBack
  {
    OFFSET 0.0 0.0 0.1
    CHANNELS 3 Zrotation Xrotation Yrotation
    JOINT Spine
    {
      OFFSET 0.0 0.0 222.29863299394984
      CHANNELS 3 Zrotation Xrotation Yrotation
      JOINT Spine1
      {
        OFFSET 0.0 0.0 252.16708715328528
        CHANNELS 3 Zrotation Xrotation Yrotation
        JOINT LeftShoulder
        {
          OFFSET 0.1 0.0 0.0
          CHANNELS 3 Zrotation Xrotation Yrotation
          JOINT LeftArm
          {
            OFFSET 143.16094457568556 0.0 0.0
            CHANNELS 3 Zrotation Xrotation Yrotation
            JOINT LeftForeArm
            {
              OFFSET 263.51762200910946 0.0 0.0
              CHANNELS 3 Zrotation Xrotation Yrotation
              JOINT LeftHand
              {
                OFFSET 238.81480451405196 0.0 0.0
                CHANNELS 3 Zrotation Xrotation Yrotation
                End Site
                {
                  OFFSET 0.1 0.0 0.0
                }
              }
            }
          }
        }
        JOINT Neck
        {
          OFFSET 0.0 0.0 0.1
          CHANNELS 3 Zrotation Xrotation Yrotation
          JOINT Neck1
          {
            OFFSET 0.0 0.0 106.35494526349558
            CHANNELS 3 Zrotation Xrotation Yrotation
            End Site
            {
              OFFSET 0.0 0.0 112.916620037171
            }
          }
        }
        JOINT RightShoulder
        {
          OFFSET -0.1 0.0 0.0
          CHANNELS 3 Zrotation Xrotation Yrotation
          JOINT RightArm
          {
            OFFSET -143.16094457568556 0.0 0.0
            CHANNELS 3 Zrotation Xrotation Yrotation
            JOINT RightForeArm
            {
              OFFSET -263.51762200910946 0.0 0.0
              CHANNELS 3 Zrotation Xrotation Yrotation
              JOINT RightHand
              {
                OFFSET -238.81480451405196 0.0 0.0
                CHANNELS 3 Zrotation Xrotation Yrotation
                End Site
                {
                  OFFSET -0.1 0.0 0.0
                }
              }
            }
          }
        }
      }
    }
  }
  JOINT RightHipJoint
  {
    OFFSET -0.1 0.0 0.0
    CHANNELS 3 Zrotation Xrotation Yrotation
    JOINT RightUpLeg
    {
      OFFSET -117.05941048100834 0.0 0.0
      CHANNELS 3 Zrotation Xrotation Yrotation
      JOINT RightLeg
      {
        OFFSET 0.0 0.0 -421.52566652508733
        CHANNELS 3 Zrotation Xrotation Yrotation
        JOINT RightFoot
        {
          OFFSET 0.0 0.0 -423.82983868275653
          CHANNELS 3 Zrotation Xrotation Yrotation
          End Site
          {
            OFFSET 0.0 -0.1 0.0
          }
        }
      }
    }
  }
}
MOTION
Frames: 11
Frame Time: 0.03333333333333333
1665.0 3500.0 860.1061683281317 34.54055880502736 -8.53090710939833 0.8890613386768333 0.0 0.0 3.975693351829396e-16 -0.28008722753974935 4.128853062289392 -1.6066825693904856 -0.8319663941215496 8.5212483688944 -0.30349091482421986 0.0 0.0 0.0 0.0 0.0 3.975693351829396e-16 -0.33668218690173574 4.90434516937396 -2.0134866301829284 -2.2292825193355617 -2.865197441058019e-16 -6.020415741615119e-16 0.0 0.0 -9.93923337957349e-17 -29.412292266568343 8.88218662455223 78.24584699938653 -52.688894506698944 -4.112608516499446e-15 -6.029356101246333e-15 0.0 0.0 1.5902773407317584e-15 0.0 0.0 -9.93923337957349e-17 6.07750812858924 7.648619373832678 -0.5279855472544895 0.0 0.0 -9.93923337957349e-17 30.106558329299723 20.49124316949493 -73.81018883731774 73.24506335519736 -8.899977499820124e-15 -1.3106582914442205e-15 0.0 0.0 0.0 0.0 0.0 3.975693351829396e-16 -0.6106154784514377 8.801286670280055 2.4503733354201342 -0.2926050908318596 10.941590505617661 1.2226443838526018 0.0 0.0 -7.951386703658791e-16
1665.0 3500.0 860.1061683281317 34.5876110053205 -8.612098294185824 0.8614693724353453 0.0 0.0 0.0 -0.3179614957543742 4.566681174760843 -1.5474001304316523 -0.8252876465788307 8.397303710204495 -0.3176948385078577 0.0 0.0 0.0 0.0 0.0 0.0 -0.3553225406348787 5.053119336846178 -1.9837428933205188 -2.6993646588219495 -5.961885508132678e-16 -1.4046654556724115e-17 0.0 0.0 9.939233379573489e-17 -30.78161247372542 7.511357462212947 77.53351054400801 -51.21802647154941 1.4618749864432896e-14 -8.423816894820855e-15 0.0 0.0 0.0 0.0 0.0 9.939233379573489e-17 5.861133816320428 7.234601004822365 -0.6142529517381944 0.0 0.0 9.939233379573489e-17 31.13787285110474 19.882234012174006 -73.68222094402537 71.47365249561224 -2.147259724602445e-14 -8.05951783685331e-15 2.2069531490250793e-31 -6.3611093629270335e-15 3.975693351829396e-15 0.0 0.0 0.0 -0.6237526496725103 8.782068210893797 2.602668682120455 -0.28104014993084075 10.922176348228675 1.0488568608682483 0.0 0.0 0.0
1665.0 3500.0 860.1061683281317 34.79489535619214 -8.427397862042906 1.0034300376146414 0.0 0.0 -3.975693351829396e-16 -0.2989066820749925 4.375610298297516 -1.6616961898088367 -0.8355600138593766 8.438191860661979 -0.2736032282879574 0.0 0.0 0.0 0.0 0.0 -3.975693351829396e-16 -0.3344067452455261 4.843417300556099 -2.2066579296054454 -2.391585261339577 -9.314803111648208e-17 -3.00186282952354e-16 0.0 0.0 4.969616689786745e-16 -30.615456845511094 7.796820859596956 77.75083653539573 -50.9103603396468 4.271931353567923e-15 -8.974350265285571e-15 0.0 0.0 -1.5902773407317584e-15 0.0 0.0 4.969616689786745e-16 5.219583519845572 7.262938613397376 -0.4548409060167174 0.0 0.0 4.969616689786745e-16 31.47463366625876 19.84809966961881 -73.62287511819116 70.73681493046614 -8.869159367836078e-15 -1.5051367918436707e-15 0.0 0.0 1.5902773407317584e-15 0.0 0.0 -3.975693351829396e-16 -0.5964974650135295 8.55211700076083 2.5546698834312225 -0.2785564548281972 11.026537136731598 0.9683331497860844 0.0 0.0 7.951386703658792e-16
1665.0 3500.0 860.1061683281317 35.187089688503285 -8.44727262531647 1.0618418224950394 0.0 0.0 0.0 -0.29710507263441366 4.31792870624661 -1.6724131086370129 -0.8553967130399561 8.575430740964087 -0.22011710269969612 0.0 0.0 0.0 0.0 0.0 0.0 -0.3343951517219698 4.807649053188188 -2.235728545520825 -2.118754828281225 1.1814784051094928e-15 6.183035349933163e-16 0.0 0.0 -1.987846675914698e-16 -30.334221081836066 8.85422282954425 78.35565820288555 -49.842040108846724 9.50157859529607e-15 -1.2901596591764744e-14 0.0 0.0 -3.1805546814635168e-15 0.0 0.0 -1.987846675914698e-16 4.777873534262702 7.417912120091618 -0.47286451713436467 0.0 0.0 -1.987846675914698e-16 31.416034282961334 20.103660169267847 -73.9288431319778 70.38105674459514 -1.4062997968751391e-14 2.1332252029460088e-15 0.0 0.0 7.951386703658792e-16 0.0 0.0 0.0 -0.6012184582130203 8.55606556873504 2.6900380726362303 -0.26160687469780486 11.179319492030833 0.8885487293699537 5.517382872562698e-33 1.5902773407317584e-15 -3.975693351829396e-16
1665.0 3500.0 860.1061683281317 35.074641170435655 -8.487821165457962 0.8512671175272419 0.0 1.4908850069360234e-15 0.0 -0.31275875784151996 4.372930618201773 -1.2411383910753644 -0.8227665157415776 8.674193765606855 -0.3549139243022587 0.0 0.0 0.0 0.0 1.4908850069360234e-15 0.0 -0.3592612710891151 4.971239290623209 -1.9809778297478793 -2.485829126347166 -4.990006863935742e-16 8.858922863516868e-17 -6.3611093629270335e-15 5.517382872562698e-33 -9.93923337957349e-17 -31.36006328926951 8.873365014367675 78.41752356484555 -50.04260864622444 4.624235764570718e-15 -9.907086322615484e-15 -3.180554681463516e-15 -3.1805546814635168e-15 7.95138670365879e-15 -6.3611093629270335e-15 5.517382872562698e-33 -9.93923337957349e-17 4.225892788342479 7.045037637188376 -0.48246216757532173 -6.3611093629270335e-15 5.517382872562698e-33 -9.93923337957349e-17 31.27586660082332 20.53806412617846 -74.17876876335194 70.31110188260368 -1.2526221946136566e-14 -6.7388667735544664e-15 0.0 0.0 -7.951386703658792e-16 0.0 1.4908850069360234e-15 0.0 -0.6273052757430967 8.59492744147951 3.1760860694497426 -0.19917438694436432 11.338620793326745 0.7492042446498796 0.0 0.0 3.975693351829396e-16
1665.0 3500.0 860.1061683281317 34.606233607802864 -8.186708206867285 0.8483507591066058 0.0 0.0 -3.9756933518293955e-16 -0.3113966421268143 4.371687168185265 -1.1260897595667367 -0.7986531356586799 8.630954104369593 -0.32486094583361874 1.3362411644487784e-33 -7.702905869169454e-16 1.987846675914698e-16 0.0 0.0 -3.9756933518293955e-16 -0.35329502937040386 4.907189046439726 -2.169875369380633 -2.7629768793143787 -2.861089895390819e-16 -5.040060224791568e-16 0.0 0.0 0.0 -30.6503972087263 9.451579206230031 78.90946228016418 -49.92655900233625 1.1975041392050856e-14 -1.0651202754154158e-14 0.0 0.0 1.5902773407317584e-15 0.0 0.0 0.0 4.10233488288693 7.139318741620714 -0.31201302022753213 0.0 0.0 0.0 29.9869721178272 21.57170773962968 -74.41284052532788 70.87719011209106 3.688362803746294e-15 5.182633708362837e-15 0.0 0.0 4.770832022195275e-15 0.0 0.0 -3.9756933518293955e-16 -0.5880552104214882 8.09006265298009 3.6026391515380958 -0.11064844414169078 11.459634361855388 0.5709558604872584 0.0 0.0 -3.975693351829396e-16
1665.0 3500.0 860.1061683281317 34.36587151036794 -8.175189268076355 0.7404284355009223 0.0 0.0 -3.975693351829396e-16 -0.29803436554375357 4.281296938689165 -0.9757569488835449 -0.7785908572820432 8.819691711510579 -0.14484726266073483 0.0 0.0 1.987846675914698e-16 0.0 0.0 -3.975693351829396e-16 -0.34652903875105234 4.922076206007175 -2.0981939783839447 -3.02624053413507 7.873620454659416e-18 -2.9807302839606447e-16 0.0 0.0 0.0 -31.671926768027035 9.369149398755775 78.98719936579256 -49.18770638341507 1.618992028679989e-16 7.288479019762801e-15 0.0 0.0 2.3854160110976376e-15 0.0 0.0 0.0 4.3398355195301 7.341148159388543 -0.3870120848394037 0.0 0.0 0.0 29.670095290415244 22.155463590186514 -74.51533199411583 70.16666886572743 0.0 0.0 0.0 0.0 -1.5902773407317584e-15 0.0 0.0 -3.975693351829396e-16 -0.5574499455738681 7.8432238530148535 4.092284031831135 0.00784036462037777 11.706741814525977 0.3712541746077672 0.0 0.0 0.0
1665.0 3500.0 860.1061683281317 33.74904131181793 -8.188890321166626 0.6573538758594434 3.4483642953516864e-34 -9.93923337957349e-17 3.975693351829396e-16 -0.329128639802617 4.942150126757949 -0.9575487653080775 -0.717020447835655 8.455465014360227 0.08019401811364185 0.0 0.0 -1.9878466759146977e-16 3.4483642953516864e-34 -9.93923337957349e-17 3.975693351829396e-16 -0.32564078521841083 4.841123130065059 -2.0447269060939597 -3.998529741138191 -4.689194121970821e-16 -8.119919891292222e-16 1.3793457181406746e-33 3.975693351829396e-16 -3.975693351829396e-16 -35.06466492192018 7.640478152744139 77.37507544287247 -49.571424001691135 -3.166754332804608e-15 6.8579751991349986e-15 0.0 0.0 3.1805546814635168e-15 1.3793457181406746e-33 3.975693351829396e-16 -3.975693351829396e-16 4.9744289479446895 6.654082794064916 -0.5191578603275957 1.3793457181406746e-33 3.975693351829396e-16 -3.975693351829396e-16 30.123291631999308 22.161539964763254 -74.28999187804823 67.79140360916419 0.0 0.0 0.0 0.0 7.951386703658792e-16 3.4483642953516864e-34 -9.93923337957349e-17 3.975693351829396e-16 -0.5250879885491886 7.728407099316985 4.346541480599255 0.09750283584127996 11.644644480297053 0.48054381950145597 0.0 0.0 7.951386703658792e-16
1665.0 3500.0 860.1061683281317 34.38709954341944 -7.900258752884655 0.5606931800769382 0.0 0.0 3.975693351829396e-16 -0.30966078468006264 4.587329788170395 -0.8923798181988054 -0.7232194576916747 8.543674917702212 0.20604975791568214 0.0 0.0 0.0 0.0 0.0 3.975693351829396e-16 -0.33053974244280776 4.840888092498701 -1.7823028237293232 -3.8431310992642254 3.806819682742946e-16 5.100132505559862e-16 -6.3611093629270335e-15 -3.862168010793889e-32 6.957463365701443e-16 -33.2975714741333 8.638035433464712 77.27707115603093 -51.80020830315787 -7.020333718651217e-15 -7.386557973324678e-15 0.0 0.0 -1.5902773407317584e-15 -6.3611093629270335e-15 -3.862168010793889e-32 6.957463365701443e-16 5.003232886684714 6.511112191147477 -0.5033622885550977 -6.3611093629270335e-15 -3.862168010793889e-32 6.957463365701443e-16 28.302728924258076 22.168147885878792 -74.17176767485071 65.74331477489717 -5.342622314515219e-15 3.452549656639572e-15 0.0 0.0 -1.5902773407317584e-15 0.0 0.0 3.975693351829396e-16 -0.5119341825376827 7.422937476491087 4.4513986000816566 0.10726096445560288 11.601232031601858 0.5573561546411934 -6.3611093629270335e-15 4.4139062980501586e-32 -7.951386703658792e-16
1665.0 3500.0 860.1061683281317 35.54025712711475 -7.742010047018103 0.7874874092923019 0.0 0.0 0.0 -0.2878597444611538 4.488452483333127 -1.1978517681103737 -0.7218475501599775 8.32961571174596 0.22233403660081713 0.0 0.0 0.0 0.0 0.0 0.0 -0.2992113586176613 4.607177109381711 -2.178917561566926 -3.231331594029859 4.995664605242038e-16 -8.534100989999804e-17 0.0 0.0 9.93923337957349e-17 -31.220807559496293 10.615502195563705 77.94928981210421 -54.18769777159177 -1.5737485660374446e-14 9.81188564293385e-15 0.0 0.0 0.0 0.0 0.0 9.93923337957349e-17 5.2952858162330765 6.587638233772667 -0.020042474757618993 0.0 0.0 9.93923337957349e-17 26.109070714417715 22.59672116516139 -73.97748515185316 63.4687298566305 -5.410096722844774e-15 3.345828115217846e-15 0.0 0.0 0.0 0.0 0.0 0.0 -0.49352885213637726 7.517207928404386 3.9923984884305477 0.049984681524122186 11.163554615112725 0.8480881312698647 0.0 0.0 -3.975693351829396e-16
1665.0 3500.0 860.1061683281317 35.51319646260788 -7.705438290259438 0.8144188606482061 0.0 0.0 0.0 -0.3016194700895195 4.713379153809962 -1.210935186818736 -0.7133960628991625 8.22228451976953 0.38412851198565556 0.0 0.0 0.0 0.0 0.0 0.0 -0.32534246009839857 5.017748405260742 -2.614588790208498 -3.981908687084828 9.933233306642616e-17 3.4530602287488467e-18 0.0 0.0 3.9756933518293955e-16 -35.796834333682334 8.522304775201205 77.07233873339025 -55.53770102560306 1.8295789303078756e-14 -7.4404012278217e-15 0.0 0.0 0.0 0.0 0.0 3.9756933518293955e-16 6.87116080015287 5.854707286941044 0.016172786810785073 0.0 0.0 3.9756933518293955e-16 26.017259702072714 22.02351925804248 -73.10764392326615 61.16957671887036 -3.2366143536162673e-15 -5.476133659168951e-15 0.0 0.0 0.0 0.0 0.0 0.0 -0.46573661162544616 7.105149800485018 3.807354445604661 0.015466663787834156 11.032261235685393 1.076145233486407 0.0 0.0 -3.975693351829396e-16
